<svg xmlns="http://www.w3.org/2000/svg" width="55.997" height="55.996" viewBox="0 0 55.997 55.996">
  <g id="Group_97" data-name="Group 97" transform="translate(-68 -57.998)">
    <path id="Subtraction_1" data-name="Subtraction 1" d="M-59,19212v0a42.819,42.819,0,0,0-4.281-9.387,43.305,43.305,0,0,0-6.311-8.016,43.376,43.376,0,0,0-8.014-6.311A42.841,42.841,0,0,0-87,19184a42.843,42.843,0,0,0,9.39-4.281,43.374,43.374,0,0,0,8.014-6.311,43.3,43.3,0,0,0,6.311-8.016A42.872,42.872,0,0,0-59,19156a42.862,42.862,0,0,0,4.282,9.391,43.3,43.3,0,0,0,6.311,8.016,43.375,43.375,0,0,0,8.014,6.311A42.843,42.843,0,0,0-31,19184a42.841,42.841,0,0,0-9.39,4.281,43.376,43.376,0,0,0-8.014,6.311,43.307,43.307,0,0,0-6.311,8.016,42.819,42.819,0,0,0-4.281,9.387Z" transform="translate(154.998 -19098.004)" fill="#fff"/>
  </g>
</svg>
