<svg xmlns="http://www.w3.org/2000/svg" width="1784" height="264.205" viewBox="0 0 1784 264.205">
  <g id="Group_99" data-name="Group 99" transform="translate(-211 19590.239)">
    <path id="Path_130" data-name="Path 130" d="M173.154-168.607h31.832q-.707-20.868-7.958-35.9a69.948,69.948,0,0,0-19.807-24.935,81.7,81.7,0,0,0-29.179-14.5,134.936,134.936,0,0,0-36.076-4.6,129.542,129.542,0,0,0-33.777,4.421,92.871,92.871,0,0,0-29.356,13.44,68.027,68.027,0,0,0-20.691,22.99q-7.781,13.971-7.781,33.07,0,17.331,6.9,28.826A55.913,55.913,0,0,0,45.65-127.048a106.886,106.886,0,0,0,26,11.672q14.5,4.421,29.533,7.781t29.533,6.543a134.644,134.644,0,0,1,26,8.312A50.684,50.684,0,0,1,175.1-79.477q6.9,8.135,6.9,21.221,0,13.794-5.659,22.636a41.185,41.185,0,0,1-14.855,13.971A67.21,67.21,0,0,1,140.792-14.4a125.439,125.439,0,0,1-22.813,2.122,107.947,107.947,0,0,1-27.588-3.537,68.648,68.648,0,0,1-23.52-10.964A56.279,56.279,0,0,1,50.6-45.7q-6.19-11.495-6.19-27.411H12.58q0,22.99,8.312,39.79A76.292,76.292,0,0,0,43.528-5.734,99.139,99.139,0,0,0,76.774,10.359a148.069,148.069,0,0,0,40.144,5.305A153.526,153.526,0,0,0,151.756,11.6,100.817,100.817,0,0,0,183.411-1.489a74.228,74.228,0,0,0,23.167-23.343Q215.6-39.157,215.6-59.317q0-18.745-6.9-31.125a61.443,61.443,0,0,0-18.392-20.514,97.413,97.413,0,0,0-26-12.91q-14.5-4.775-29.533-8.312t-29.533-6.543a154.648,154.648,0,0,1-26-7.6q-11.495-4.6-18.392-11.849t-6.9-18.922q0-12.379,4.775-20.691a37.135,37.135,0,0,1,12.733-13.263,55.409,55.409,0,0,1,18.215-7.074,102.724,102.724,0,0,1,20.868-2.122q26.173,0,42.973,12.2T173.154-168.607Zm119.9-4.244v-54.822H262.991v54.822H231.866v26.527h31.125V-29.961q0,12.733,2.476,20.514a24.939,24.939,0,0,0,7.6,12.025,29.354,29.354,0,0,0,13.44,5.836,107.951,107.951,0,0,0,19.983,1.592h22.99V-16.521H315.69a100.265,100.265,0,0,1-11.495-.531,14.848,14.848,0,0,1-6.9-2.3,8.74,8.74,0,0,1-3.36-4.952,32.806,32.806,0,0,1-.884-8.488V-146.324h36.43v-26.527ZM514.109,10.006V-172.851H484.046V-69.574a74.074,74.074,0,0,1-3.36,22.813,51.811,51.811,0,0,1-10.08,18.215,44.765,44.765,0,0,1-16.8,12.025q-10.08,4.244-23.874,4.244-17.331,0-27.234-9.9t-9.9-26.88V-172.851H362.731V-52.6a113.156,113.156,0,0,0,3.006,27.057A51.243,51.243,0,0,0,376.171-4.5,47.935,47.935,0,0,0,395.624,9.121Q407.649,13.9,425.687,13.9q20.16,0,35.015-7.958T485.107-19h.707v29Zm67.2-89.837A120.289,120.289,0,0,1,584.139-106a69.241,69.241,0,0,1,9.2-22.636,47.877,47.877,0,0,1,16.977-15.916q10.611-6.013,25.819-6.013,15.562,0,26.527,5.836a51.487,51.487,0,0,1,17.861,15.385,64.332,64.332,0,0,1,10.08,22.105,105.369,105.369,0,0,1,3.183,26,106.033,106.033,0,0,1-3.006,25.112,65.812,65.812,0,0,1-9.726,22.105,51.749,51.749,0,0,1-17.331,15.739q-10.611,6.013-25.819,6.013-14.5,0-25.289-5.659a50.261,50.261,0,0,1-17.684-15.209A67.3,67.3,0,0,1,584.67-54.9,93.5,93.5,0,0,1,581.31-79.831ZM722.785,10.006V-242.527H692.721v94.081h-.707a48.431,48.431,0,0,0-12.2-13.617,69.323,69.323,0,0,0-15.385-8.842,77.225,77.225,0,0,0-16.27-4.775,89.049,89.049,0,0,0-15.209-1.415q-20.868,0-36.607,7.6a75.151,75.151,0,0,0-26.173,20.514,86.6,86.6,0,0,0-15.562,30.24,129,129,0,0,0-5.128,36.784,125,125,0,0,0,5.305,36.784,90.926,90.926,0,0,0,15.739,30.417A76.064,76.064,0,0,0,596.695,6.115q15.739,7.781,36.96,7.781a89.125,89.125,0,0,0,35.015-6.72,44.244,44.244,0,0,0,23.343-21.929h.707V10.006Zm48.1-182.856V10.006h30.063V-172.851Zm98.679,91.605q0-16.623,4.421-29.533a63.734,63.734,0,0,1,12.2-21.752,51.963,51.963,0,0,1,18.215-13.44,54.212,54.212,0,0,1,22.105-4.6,54.213,54.213,0,0,1,22.105,4.6,51.963,51.963,0,0,1,18.215,13.44,63.735,63.735,0,0,1,12.2,21.752q4.421,12.91,4.421,29.533t-4.421,29.533a61.79,61.79,0,0,1-12.2,21.575,52.95,52.95,0,0,1-18.215,13.263,54.213,54.213,0,0,1-22.105,4.6,54.213,54.213,0,0,1-22.105-4.6,52.949,52.949,0,0,1-18.215-13.263,61.789,61.789,0,0,1-12.2-21.575Q869.565-64.622,869.565-81.246Zm-31.832,0a120.117,120.117,0,0,0,5.659,37.491,85.579,85.579,0,0,0,16.977,30.24A78.1,78.1,0,0,0,888.31,6.646q16.623,7.251,38.2,7.251,21.929,0,38.375-7.251a78.469,78.469,0,0,0,27.764-20.16,85.578,85.578,0,0,0,16.977-30.24,120.117,120.117,0,0,0,5.659-37.491,121.787,121.787,0,0,0-5.659-37.668,85.344,85.344,0,0,0-16.977-30.417,80.379,80.379,0,0,0-27.764-20.337q-16.446-7.427-38.375-7.427-21.575,0-38.2,7.427a79.974,79.974,0,0,0-27.941,20.337,85.345,85.345,0,0,0-16.977,30.417A121.787,121.787,0,0,0,837.733-81.246Zm395.423-85.239h33.6q-2.83-20.16-12.025-35.546a87.46,87.46,0,0,0-22.99-25.642,100.777,100.777,0,0,0-31.478-15.562,129.809,129.809,0,0,0-37.491-5.305q-29,0-51.462,10.434a106.351,106.351,0,0,0-37.491,28.472,124.863,124.863,0,0,0-22.813,42.266,168.481,168.481,0,0,0-7.781,51.815,178.068,178.068,0,0,0,7.251,51.638,119.272,119.272,0,0,0,21.752,41.735,100.729,100.729,0,0,0,36.43,27.764q21.929,10.08,51.285,10.08,48.455,0,76.4-26.527t32.893-74.274h-33.6a96.358,96.358,0,0,1-6.366,29,70,70,0,0,1-14.678,23.167A66.851,66.851,0,0,1,1192.3-17.759q-12.909,5.482-29.533,5.482-22.636,0-38.906-8.489a75.981,75.981,0,0,1-26.7-22.813,97.705,97.705,0,0,1-15.385-33.6,163.639,163.639,0,0,1-4.952-40.851,146.29,146.29,0,0,1,4.952-38.2,98.46,98.46,0,0,1,15.385-32.716,76.436,76.436,0,0,1,26.527-22.813q16.093-8.489,38.729-8.489,26.527,0,45.8,13.44T1233.156-166.485Zm71.8-6.366V10.006h30.063V-71.343a125.017,125.017,0,0,1,3.537-31.3,60,60,0,0,1,11.318-23.167,48.508,48.508,0,0,1,20.514-14.5q12.733-4.952,30.771-4.952V-177.1q-24.4-.707-40.32,9.9t-26.88,32.893h-.707v-38.552ZM1585.782,9.3q-7.781,4.6-21.575,4.6-11.672,0-18.569-6.543t-6.9-21.4a71.927,71.927,0,0,1-28.826,21.4,95.279,95.279,0,0,1-35.546,6.543,95.228,95.228,0,0,1-23.52-2.83,54.689,54.689,0,0,1-19.276-8.842,42.439,42.439,0,0,1-12.91-15.739q-4.774-9.726-4.775-23.52,0-15.562,5.305-25.465a46.284,46.284,0,0,1,13.971-16.093,64.014,64.014,0,0,1,19.807-9.373q11.141-3.183,22.813-5.305,12.379-2.476,23.52-3.714a131.04,131.04,0,0,0,19.63-3.537q8.489-2.3,13.44-6.72t4.952-12.91q0-9.9-3.714-15.916a25.468,25.468,0,0,0-9.55-9.2,38.829,38.829,0,0,0-13.087-4.244,98.824,98.824,0,0,0-14.324-1.061q-19.1,0-31.832,7.251t-13.794,27.411h-30.063q.707-16.977,7.074-28.649a53.632,53.632,0,0,1,16.977-18.922,71.228,71.228,0,0,1,24.227-10.434,127.955,127.955,0,0,1,29.179-3.183A171.161,171.161,0,0,1,1523-175.327a64.246,64.246,0,0,1,22.105,7.251,42.384,42.384,0,0,1,15.916,15.385q6.013,9.9,6.012,25.819v94.081q0,10.611,1.238,15.562t8.312,4.952a29.772,29.772,0,0,0,9.2-1.768Zm-48.809-93.727q-5.659,4.244-14.855,6.19t-19.276,3.183q-10.08,1.238-20.337,2.829a74.773,74.773,0,0,0-18.392,5.128,33.455,33.455,0,0,0-13.263,10.08q-5.129,6.543-5.129,17.861a24.444,24.444,0,0,0,3.006,12.556,25.06,25.06,0,0,0,7.781,8.312,32.645,32.645,0,0,0,11.141,4.6,61.816,61.816,0,0,0,13.44,1.415q14.855,0,25.465-4.067A53.563,53.563,0,0,0,1523.887-26.6a40.459,40.459,0,0,0,9.9-13.44,33.995,33.995,0,0,0,3.183-13.617Zm89.129-61.9V10.006h30.063v-156.33h35.369v-26.527h-35.369v-25.465q0-12.025,6.013-16.27t16.977-4.244a74.435,74.435,0,0,1,8.488.531,37.279,37.279,0,0,1,8.489,1.945v-26.173a51.864,51.864,0,0,0-9.726-2.122,76.971,76.971,0,0,0-9.726-.707q-24.758,0-37.668,11.495t-12.91,33.777v27.234h-30.771v26.527Zm134.048-26.527v-54.822h-30.063v54.822h-31.125v26.527h31.125V-29.961q0,12.733,2.476,20.514a24.939,24.939,0,0,0,7.6,12.025,29.353,29.353,0,0,0,13.44,5.836,107.95,107.95,0,0,0,19.983,1.592h22.99V-16.521h-13.794a100.272,100.272,0,0,1-11.5-.531,14.847,14.847,0,0,1-6.9-2.3,8.74,8.74,0,0,1-3.36-4.952,32.806,32.806,0,0,1-.884-8.488V-146.324h36.43v-26.527Z" transform="translate(198.42 -19341.699)" fill="#fff"/>
    <g id="Group_99-2" data-name="Group 99" transform="translate(888.4 -19642)">
      <path id="Subtraction_1" data-name="Subtraction 1" d="M-59,19212v0a42.819,42.819,0,0,0-4.281-9.387,43.305,43.305,0,0,0-6.311-8.016,43.376,43.376,0,0,0-8.014-6.311A42.841,42.841,0,0,0-87,19184a42.843,42.843,0,0,0,9.39-4.281,43.374,43.374,0,0,0,8.014-6.311,43.3,43.3,0,0,0,6.311-8.016A42.872,42.872,0,0,0-59,19156a42.862,42.862,0,0,0,4.282,9.391,43.3,43.3,0,0,0,6.311,8.016,43.375,43.375,0,0,0,8.014,6.311A42.843,42.843,0,0,0-31,19184a42.841,42.841,0,0,0-9.39,4.281,43.376,43.376,0,0,0-8.014,6.311,43.307,43.307,0,0,0-6.311,8.016,42.819,42.819,0,0,0-4.281,9.387Z" transform="translate(154.998 -19098.004)" fill="#fff"/>
    </g>
  </g>
</svg>
