<svg xmlns="http://www.w3.org/2000/svg" version="1.1" xmlns:xlink="http://www.w3.org/1999/xlink" xmlns:svgjs="http://svgjs.dev/svgjs" width="64" height="64"><svg width="64" height="64" viewBox="0 0 64 64" fill="none" xmlns="http://www.w3.org/2000/svg">
<rect width="64" height="64" fill="black"></rect>
<path d="M23.3327 54.6114L23.3362 54.613C25.8068 55.7545 28.6381 56.3182 31.8186 56.3182C34.9841 56.3182 37.7937 55.7544 40.2351 54.612L40.2363 54.6114C42.6865 53.4565 44.6154 51.8634 46.0044 49.8272C47.412 47.7708 48.1211 45.4302 48.1368 42.8212L48.1368 42.8143C48.1211 40.776 47.6972 38.8846 46.8603 37.1474C46.0284 35.4054 44.9098 33.9455 43.5031 32.7756C42.4283 31.8702 41.2483 31.2145 39.9657 30.8122C41.7183 30.1031 43.1653 28.9152 44.2992 27.26C45.6919 25.234 46.3938 22.931 46.4095 20.3667H46.4096L46.4095 20.3604C46.3938 17.9066 45.7474 15.6979 44.4643 13.7489C43.2009 11.807 41.4656 10.2801 39.272 9.1677C37.0718 8.0519 34.5836 7.5 31.8186 7.5C29.0242 7.5 26.5136 8.05154 24.2983 9.16706L24.297 9.1677C22.103 10.2804 20.3675 11.8076 19.104 13.7501C17.8356 15.7002 17.2125 17.91 17.2277 20.3637C17.2125 22.9277 17.891 25.2314 19.2687 27.2583L19.2698 27.2598C20.4056 28.9179 21.8699 30.1057 23.6535 30.814C22.3601 31.2161 21.1644 31.8703 20.0689 32.7731C18.6452 33.9438 17.5248 35.4056 16.7071 37.1507C15.8856 38.8888 15.4852 40.7806 15.5004 42.8186C15.4853 45.4272 16.171 47.7684 17.5636 49.8257L17.5647 49.8272C18.9537 51.8634 20.8825 53.4565 23.3327 54.6114ZM36.8432 35.1509L36.845 35.1518C38.3177 35.8881 39.4686 36.892 40.311 38.1626C41.146 39.4223 41.5762 40.8777 41.5913 42.5453C41.5762 44.124 41.1755 45.4794 40.4034 46.6306C39.6286 47.7857 38.5246 48.6905 37.0697 49.3387C35.6176 49.9857 33.872 50.3182 31.8186 50.3182C29.7497 50.3182 27.9883 49.9856 26.5204 49.338C25.0508 48.6896 23.9407 47.7854 23.1668 46.6322C22.4105 45.4829 22.0315 44.1289 22.0459 42.55H22.0459L22.0459 42.5411C22.0315 40.8732 22.4398 39.419 23.2592 38.1609C24.1013 36.8913 25.2516 35.8881 26.7234 35.1521C28.2057 34.4184 29.9004 34.0455 31.8186 34.0455C33.7217 34.0455 35.3926 34.4184 36.8432 35.1509ZM36.0227 27.2821L36.0206 27.2832C34.8137 27.908 33.4173 28.2273 31.8186 28.2273C30.1882 28.2273 28.7684 27.9074 27.5463 27.2822C26.3217 26.6556 25.369 25.7858 24.6765 24.6702C24.0052 23.5645 23.6678 22.258 23.6822 20.732L23.6823 20.732L23.6822 20.7225C23.6678 19.2257 23.9982 17.9494 24.6545 16.8741L24.656 16.8717C25.3158 15.7767 26.2488 14.932 27.4698 14.3356L27.4699 14.3357L27.474 14.3336C28.6953 13.7229 30.1387 13.4091 31.8186 13.4091C33.4668 13.4091 34.8869 13.7224 36.0929 14.3325L36.0929 14.3325L36.0971 14.3346C37.3039 14.9309 38.2393 15.7768 38.9155 16.8757L38.917 16.8781C39.5882 17.9548 39.9399 19.2318 39.955 20.7274C39.9398 22.253 39.5807 23.5607 38.8937 24.6683C38.2012 25.7848 37.248 26.6552 36.0227 27.2821Z" fill="#868686" stroke="white"></path>
<line x1="4.5" y1="2.18557e-08" x2="4.5" y2="64" stroke="white" stroke-opacity="0.09"></line>
<line x1="4.5" y1="2.18557e-08" x2="4.5" y2="64" stroke="white" stroke-opacity="0.09"></line>
<line x1="11.5" y1="2.18557e-08" x2="11.5" y2="64" stroke="white" stroke-opacity="0.09"></line>
<line x1="11.5" y1="2.18557e-08" x2="11.5" y2="64" stroke="white" stroke-opacity="0.09"></line>
<line x1="18.5" y1="2.18557e-08" x2="18.5" y2="64" stroke="white" stroke-opacity="0.09"></line>
<line x1="18.5" y1="2.18557e-08" x2="18.5" y2="64" stroke="white" stroke-opacity="0.09"></line>
<line x1="25.5" y1="2.18557e-08" x2="25.5" y2="64" stroke="white" stroke-opacity="0.09"></line>
<line x1="25.5" y1="2.18557e-08" x2="25.5" y2="64" stroke="white" stroke-opacity="0.09"></line>
<line x1="32.5" y1="2.18557e-08" x2="32.5" y2="64" stroke="white" stroke-opacity="0.09"></line>
<line x1="32.5" y1="2.18557e-08" x2="32.5" y2="64" stroke="white" stroke-opacity="0.09"></line>
<line x1="39.5" y1="2.18557e-08" x2="39.5" y2="64" stroke="white" stroke-opacity="0.09"></line>
<line x1="39.5" y1="2.18557e-08" x2="39.5" y2="64" stroke="white" stroke-opacity="0.09"></line>
<line x1="46.5" y1="2.18557e-08" x2="46.5" y2="64" stroke="white" stroke-opacity="0.09"></line>
<line x1="46.5" y1="2.18557e-08" x2="46.5" y2="64" stroke="white" stroke-opacity="0.09"></line>
<line x1="53.5" y1="2.18557e-08" x2="53.5" y2="64" stroke="white" stroke-opacity="0.09"></line>
<line x1="53.5" y1="2.18557e-08" x2="53.5" y2="64" stroke="white" stroke-opacity="0.09"></line>
<line x1="60.5" y1="2.18557e-08" x2="60.5" y2="64" stroke="white" stroke-opacity="0.09"></line>
<line x1="60.5" y1="2.18557e-08" x2="60.5" y2="64" stroke="white" stroke-opacity="0.09"></line>
<line x1="64" y1="4.5" x2="-2.18557e-08" y2="4.5" stroke="white" stroke-opacity="0.09"></line>
<line x1="64" y1="4.5" x2="-2.18557e-08" y2="4.5" stroke="white" stroke-opacity="0.09"></line>
<line x1="64" y1="11.5" x2="-2.18557e-08" y2="11.5" stroke="white" stroke-opacity="0.09"></line>
<line x1="64" y1="11.5" x2="-2.18557e-08" y2="11.5" stroke="white" stroke-opacity="0.09"></line>
<line x1="64" y1="18.5" x2="-2.18557e-08" y2="18.5" stroke="white" stroke-opacity="0.09"></line>
<line x1="64" y1="18.5" x2="-2.18557e-08" y2="18.5" stroke="white" stroke-opacity="0.09"></line>
<line x1="64" y1="25.5" x2="-2.18557e-08" y2="25.5" stroke="white" stroke-opacity="0.09"></line>
<line x1="64" y1="25.5" x2="-2.18557e-08" y2="25.5" stroke="white" stroke-opacity="0.09"></line>
<line x1="64" y1="32.5" x2="-2.18557e-08" y2="32.5" stroke="white" stroke-opacity="0.09"></line>
<line x1="64" y1="32.5" x2="-2.18557e-08" y2="32.5" stroke="white" stroke-opacity="0.09"></line>
<line x1="64" y1="39.5" x2="-2.18557e-08" y2="39.5" stroke="white" stroke-opacity="0.09"></line>
<line x1="64" y1="39.5" x2="-2.18557e-08" y2="39.5" stroke="white" stroke-opacity="0.09"></line>
<line x1="64" y1="46.5" x2="-2.18557e-08" y2="46.5" stroke="white" stroke-opacity="0.09"></line>
<line x1="64" y1="46.5" x2="-2.18557e-08" y2="46.5" stroke="white" stroke-opacity="0.09"></line>
<line x1="64" y1="53.5" x2="-2.18557e-08" y2="53.5" stroke="white" stroke-opacity="0.09"></line>
<line x1="64" y1="53.5" x2="-2.18557e-08" y2="53.5" stroke="white" stroke-opacity="0.09"></line>
<line x1="64" y1="60.5" x2="-2.18557e-08" y2="60.5" stroke="white" stroke-opacity="0.09"></line>
<line x1="64" y1="60.5" x2="-2.18557e-08" y2="60.5" stroke="white" stroke-opacity="0.09"></line>
</svg><style>@media (prefers-color-scheme: light) { :root { filter: none; } }
@media (prefers-color-scheme: dark) { :root { filter: none; } }
</style></svg>